<svg width="200" height="56" viewBox="0 0 200 56" fill="none" xmlns="http://www.w3.org/2000/svg">
<path d="M70.3926 27.2192V28.4995C70.3926 30.5529 70.1143 32.396 69.5576 34.0288C69.001 35.6616 68.2155 37.0532 67.2012 38.2036C66.1868 39.3416 64.9746 40.2137 63.5645 40.8198C62.1667 41.4259 60.6143 41.729 58.9072 41.729C57.2126 41.729 55.6602 41.4259 54.25 40.8198C52.8522 40.2137 51.64 39.3416 50.6133 38.2036C49.5866 37.0532 48.7887 35.6616 48.2197 34.0288C47.6631 32.396 47.3848 30.5529 47.3848 28.4995V27.2192C47.3848 25.1535 47.6631 23.3104 48.2197 21.6899C48.7764 20.0571 49.5618 18.6655 50.5762 17.5151C51.6029 16.3647 52.8151 15.4865 54.2129 14.8804C55.623 14.2743 57.1755 13.9712 58.8701 13.9712C60.5771 13.9712 62.1296 14.2743 63.5273 14.8804C64.9375 15.4865 66.1497 16.3647 67.1641 17.5151C68.1908 18.6655 68.9824 20.0571 69.5391 21.6899C70.1081 23.3104 70.3926 25.1535 70.3926 27.2192ZM64.7705 28.4995V27.1821C64.7705 25.7472 64.6406 24.4855 64.3809 23.397C64.1211 22.3084 63.7376 21.3931 63.2305 20.6509C62.7233 19.9087 62.1048 19.3521 61.375 18.981C60.6452 18.5975 59.8102 18.4058 58.8701 18.4058C57.93 18.4058 57.0951 18.5975 56.3652 18.981C55.6478 19.3521 55.0355 19.9087 54.5283 20.6509C54.0335 21.3931 53.6562 22.3084 53.3965 23.397C53.1367 24.4855 53.0068 25.7472 53.0068 27.1821V28.4995C53.0068 29.922 53.1367 31.1838 53.3965 32.2847C53.6562 33.3732 54.0397 34.2948 54.5469 35.0493C55.054 35.7915 55.6725 36.3543 56.4023 36.7378C57.1322 37.1213 57.9671 37.313 58.9072 37.313C59.8473 37.313 60.6823 37.1213 61.4121 36.7378C62.1419 36.3543 62.7542 35.7915 63.249 35.0493C63.7438 34.2948 64.1211 33.3732 64.3809 32.2847C64.6406 31.1838 64.7705 29.922 64.7705 28.4995ZM79.4102 25.6606V41.3579H74.0664V21.2817H79.0947L79.4102 25.6606ZM85.459 21.1519L85.3662 26.106C85.1064 26.0688 84.791 26.0379 84.4199 26.0132C84.0612 25.9761 83.7334 25.9575 83.4365 25.9575C82.682 25.9575 82.0264 26.0565 81.4697 26.2544C80.9255 26.4399 80.4678 26.7183 80.0967 27.0894C79.738 27.4604 79.4658 27.9119 79.2803 28.4438C79.1071 28.9757 79.0081 29.5819 78.9834 30.2622L77.9072 29.9282C77.9072 28.6294 78.0371 27.4357 78.2969 26.3472C78.5566 25.2463 78.9339 24.2876 79.4287 23.4712C79.9359 22.6548 80.5544 22.0239 81.2842 21.5786C82.014 21.1333 82.849 20.9106 83.7891 20.9106C84.0859 20.9106 84.389 20.9354 84.6982 20.9849C85.0075 21.022 85.2611 21.0776 85.459 21.1519ZM100.321 21.2817H105.164V40.6899C105.164 42.5207 104.756 44.0731 103.939 45.3472C103.135 46.6336 102.01 47.6047 100.562 48.2603C99.1152 48.9282 97.4329 49.2622 95.5156 49.2622C94.6745 49.2622 93.7839 49.1509 92.8438 48.9282C91.916 48.7056 91.0254 48.3592 90.1719 47.8892C89.3307 47.4191 88.6257 46.8254 88.0566 46.1079L90.4131 42.9536C91.0316 43.6711 91.749 44.2277 92.5654 44.6235C93.3818 45.0317 94.2848 45.2358 95.2744 45.2358C96.2393 45.2358 97.0557 45.0565 97.7236 44.6978C98.3916 44.3514 98.9049 43.8381 99.2637 43.1577C99.6224 42.4897 99.8018 41.6795 99.8018 40.7271V25.9204L100.321 21.2817ZM86.8135 31.561V31.1714C86.8135 29.6375 86.999 28.2459 87.3701 26.9966C87.7536 25.7349 88.2917 24.6525 88.9844 23.7495C89.6895 22.8465 90.543 22.1476 91.5449 21.6528C92.5469 21.158 93.6787 20.9106 94.9404 20.9106C96.2764 20.9106 97.3958 21.158 98.2988 21.6528C99.2018 22.1476 99.944 22.8527 100.525 23.7681C101.107 24.6711 101.558 25.741 101.88 26.978C102.214 28.2026 102.474 29.5448 102.659 31.0044V31.8579C102.474 33.2557 102.195 34.5545 101.824 35.7544C101.453 36.9543 100.965 38.0057 100.358 38.9087C99.7523 39.7993 98.9977 40.492 98.0947 40.9868C97.2041 41.4816 96.1403 41.729 94.9033 41.729C93.6663 41.729 92.5469 41.4754 91.5449 40.9683C90.5553 40.4611 89.708 39.7498 89.0029 38.8345C88.2979 37.9191 87.7536 36.8429 87.3701 35.606C86.999 34.369 86.8135 33.0207 86.8135 31.561ZM92.1572 31.1714V31.561C92.1572 32.3898 92.2376 33.1629 92.3984 33.8804C92.5592 34.5978 92.8066 35.2349 93.1406 35.7915C93.487 36.3358 93.9137 36.7625 94.4209 37.0718C94.9404 37.3687 95.5527 37.5171 96.2578 37.5171C97.235 37.5171 98.0329 37.313 98.6514 36.9048C99.2699 36.4842 99.7337 35.909 100.043 35.1792C100.352 34.4494 100.532 33.6082 100.581 32.6558V30.2251C100.556 29.4458 100.451 28.7469 100.266 28.1284C100.08 27.4976 99.8203 26.9595 99.4863 26.5142C99.1523 26.0688 98.7194 25.7225 98.1875 25.4751C97.6556 25.2277 97.0247 25.104 96.2949 25.104C95.5898 25.104 94.9775 25.2648 94.458 25.5864C93.9508 25.8957 93.5241 26.3224 93.1777 26.8667C92.8438 27.411 92.5902 28.0542 92.417 28.7964C92.2438 29.5262 92.1572 30.3179 92.1572 31.1714ZM120.156 36.8306V27.8872C120.156 27.244 120.051 26.6935 119.841 26.2358C119.631 25.7658 119.303 25.4009 118.857 25.1411C118.424 24.8813 117.862 24.7515 117.169 24.7515C116.575 24.7515 116.062 24.8566 115.629 25.0669C115.196 25.2648 114.862 25.5555 114.627 25.939C114.392 26.3101 114.274 26.7492 114.274 27.2563H108.931C108.931 26.4028 109.129 25.5926 109.524 24.8257C109.92 24.0588 110.495 23.3846 111.25 22.8032C112.005 22.2095 112.901 21.7456 113.94 21.4116C114.992 21.0776 116.167 20.9106 117.466 20.9106C119.024 20.9106 120.41 21.1704 121.622 21.6899C122.834 22.2095 123.787 22.9888 124.479 24.0278C125.185 25.0669 125.537 26.3657 125.537 27.9243V36.5151C125.537 37.616 125.605 38.519 125.741 39.2241C125.877 39.9168 126.075 40.5229 126.335 41.0425V41.3579H120.936C120.676 40.8136 120.478 40.1333 120.342 39.3169C120.218 38.4881 120.156 37.6593 120.156 36.8306ZM120.861 29.1304L120.898 32.1548H117.911C117.206 32.1548 116.594 32.2352 116.074 32.396C115.555 32.5568 115.128 32.7856 114.794 33.0825C114.46 33.367 114.213 33.701 114.052 34.0845C113.903 34.4679 113.829 34.8885 113.829 35.3462C113.829 35.8039 113.934 36.2183 114.145 36.5894C114.355 36.9481 114.658 37.2326 115.054 37.4429C115.45 37.6408 115.913 37.7397 116.445 37.7397C117.249 37.7397 117.948 37.5789 118.542 37.2573C119.136 36.9357 119.593 36.5399 119.915 36.0698C120.249 35.5998 120.422 35.1545 120.435 34.7339L121.845 36.9976C121.647 37.5047 121.375 38.0304 121.028 38.5747C120.694 39.119 120.268 39.6323 119.748 40.1147C119.229 40.5848 118.604 40.9744 117.874 41.2837C117.144 41.5806 116.278 41.729 115.276 41.729C114.002 41.729 112.846 41.4754 111.807 40.9683C110.78 40.4487 109.964 39.7375 109.357 38.8345C108.764 37.9191 108.467 36.88 108.467 35.7173C108.467 34.6659 108.665 33.7319 109.061 32.9155C109.456 32.0991 110.038 31.4126 110.805 30.856C111.584 30.2869 112.555 29.8602 113.718 29.5757C114.881 29.2788 116.229 29.1304 117.763 29.1304H120.861ZM134.889 25.5679V41.3579H129.545V21.2817H134.555L134.889 25.5679ZM134.109 30.6147H132.662C132.662 29.1304 132.854 27.7944 133.237 26.6069C133.621 25.4071 134.159 24.3866 134.852 23.5454C135.544 22.6919 136.367 22.0425 137.319 21.5972C138.284 21.1395 139.36 20.9106 140.548 20.9106C141.488 20.9106 142.348 21.0467 143.127 21.3188C143.906 21.591 144.574 22.0239 145.131 22.6177C145.7 23.2114 146.133 23.9969 146.43 24.9741C146.739 25.9513 146.894 27.145 146.894 28.5552V41.3579H141.513V28.5366C141.513 27.646 141.389 26.9533 141.142 26.4585C140.894 25.9637 140.529 25.6174 140.047 25.4194C139.577 25.2091 138.995 25.104 138.303 25.104C137.585 25.104 136.961 25.2463 136.429 25.5308C135.909 25.8153 135.476 26.2111 135.13 26.7183C134.796 27.2131 134.542 27.7944 134.369 28.4624C134.196 29.1304 134.109 29.8478 134.109 30.6147ZM156.598 21.2817V41.3579H151.235V21.2817H156.598ZM150.901 16.0493C150.901 15.27 151.174 14.6268 151.718 14.1196C152.262 13.6125 152.992 13.3589 153.907 13.3589C154.81 13.3589 155.534 13.6125 156.078 14.1196C156.635 14.6268 156.913 15.27 156.913 16.0493C156.913 16.8286 156.635 17.4718 156.078 17.979C155.534 18.4862 154.81 18.7397 153.907 18.7397C152.992 18.7397 152.262 18.4862 151.718 17.979C151.174 17.4718 150.901 16.8286 150.901 16.0493ZM169.308 37.5542C169.963 37.5542 170.545 37.4305 171.052 37.1831C171.559 36.9233 171.955 36.5646 172.239 36.1069C172.536 35.6369 172.691 35.0864 172.703 34.4556H177.731C177.719 35.8657 177.342 37.1213 176.6 38.2222C175.857 39.3107 174.862 40.1704 173.612 40.8013C172.363 41.4198 170.965 41.729 169.419 41.729C167.86 41.729 166.5 41.4692 165.337 40.9497C164.187 40.4302 163.228 39.7127 162.461 38.7974C161.694 37.8696 161.119 36.7935 160.735 35.5688C160.352 34.3319 160.16 33.0083 160.16 31.5981V31.0601C160.16 29.6375 160.352 28.314 160.735 27.0894C161.119 25.8524 161.694 24.7762 162.461 23.8608C163.228 22.9331 164.187 22.2095 165.337 21.6899C166.487 21.1704 167.836 20.9106 169.382 20.9106C171.027 20.9106 172.468 21.2261 173.705 21.8569C174.954 22.4878 175.932 23.3908 176.637 24.5659C177.354 25.7287 177.719 27.1079 177.731 28.7036H172.703C172.691 28.0356 172.549 27.4295 172.276 26.8853C172.017 26.341 171.633 25.908 171.126 25.5864C170.631 25.2524 170.019 25.0854 169.289 25.0854C168.51 25.0854 167.873 25.2524 167.378 25.5864C166.883 25.908 166.5 26.3534 166.228 26.9224C165.955 27.479 165.764 28.116 165.652 28.8335C165.553 29.5386 165.504 30.2808 165.504 31.0601V31.5981C165.504 32.3774 165.553 33.1258 165.652 33.8433C165.751 34.5607 165.937 35.1978 166.209 35.7544C166.493 36.311 166.883 36.7502 167.378 37.0718C167.873 37.3934 168.516 37.5542 169.308 37.5542ZM186.174 12.8394V41.3579H180.83V12.8394H186.174ZM198.828 21.2817L190.107 31.2271L185.432 35.9585L183.483 32.0991L187.194 27.3862L192.408 21.2817H198.828ZM193.28 41.3579L187.343 32.0806L191.035 28.8521L199.44 41.3579H193.28Z" fill="#274C5B"/>
<path d="M1.85156 41.9263H19.2919H36.7322" stroke="#7EB693" stroke-width="2" stroke-miterlimit="10"/>
<path d="M5.78906 48.3579L19.2891 48.3579L32.7891 48.3579" stroke="#7EB693" stroke-width="2" stroke-miterlimit="10"/>
<path d="M18.7891 1.35791L18.7891 8.35791L18.7891 15.3579" stroke="#7EB693" stroke-width="2" stroke-miterlimit="10"/>
<path d="M18.8672 14.6421V41.0737" stroke="#7EB693" stroke-width="2" stroke-miterlimit="10"/>
<path d="M29.9269 4.41064L18.8672 15.4949" stroke="#7EB693" stroke-width="2" stroke-miterlimit="10"/>
<path d="M34.1806 8.67383L18.8672 24.0212" stroke="#7EB693" stroke-width="2" stroke-miterlimit="10"/>
<path d="M36.7329 15.4946L18.8672 32.5473" stroke="#7EB693" stroke-width="2" stroke-miterlimit="10"/>
<path d="M37.5836 23.1685L18.8672 41.9264" stroke="#7EB693" stroke-width="2" stroke-miterlimit="10"/>
<path d="M37.584 31.6948L27.375 41.9264" stroke="#7EB693" stroke-width="2" stroke-miterlimit="10"/>
<path d="M1 31.6948L11.209 41.9264" stroke="#7EB693" stroke-width="2" stroke-miterlimit="10"/>
<path d="M8.65625 4.41064L18.8652 15.4949" stroke="#7EB693" stroke-width="2" stroke-miterlimit="10"/>
<path d="M4.40234 8.67383L18.865 24.0212" stroke="#7EB693" stroke-width="2" stroke-miterlimit="10"/>
<path d="M1.85156 14.6421L18.8665 32.5474" stroke="#7EB693" stroke-width="2" stroke-miterlimit="10"/>
<path d="M1 22.3159L18.8657 41.0738" stroke="#7EB693" stroke-width="2" stroke-miterlimit="10"/>
<path d="M19.291 54.7158C9.19019 54.7158 1 46.2635 1 35.8351V19.8806C1 9.45419 9.19019 1 19.291 1C29.3937 1 37.5821 9.45419 37.5821 19.8806V35.8351C37.5839 46.2635 29.3937 54.7158 19.291 54.7158Z" stroke="#7EB693" stroke-width="2" stroke-miterlimit="10"/>
</svg>
